<svg width="60" height="60" viewBox="0 0 60 60" fill="none" xmlns="http://www.w3.org/2000/svg">
<rect width="60" height="60" rx="30" fill="black"/>
<path d="M34.0647 46.4766V11.9751L45.6776 21.929V36.5226L34.0647 46.4766ZM24.3873 43.367V15.0846L28.2583 16.3749V42.0767L24.3873 43.367ZM28.6553 16.5073C28.6551 16.5072 28.6548 16.5071 28.6546 16.507L28.6553 16.5073ZM28.6553 41.9443L28.6537 41.9449C28.6542 41.9447 28.6548 41.9445 28.6553 41.9443L28.8389 42.4952L28.6553 41.9443ZM23.623 43.6218C23.6234 43.6216 23.6238 43.6215 23.6242 43.6214L23.623 43.6218ZM17.6131 40.4638V17.9878L18.5808 18.3104V40.1412L17.6131 40.4638Z" fill="white" stroke="white" stroke-width="1.93548"/>
</svg>
