<svg width="60" height="60" viewBox="0 0 60 60" fill="none" xmlns="http://www.w3.org/2000/svg">
<rect width="60" height="60" rx="30" fill="black"/>
<path d="M18.5002 38.2515L30.0005 49.7518L41.5008 38.2515C44.7208 35.0314 46.2734 30.7188 46.2734 26.5212C46.2734 17.4359 38.6832 10.2482 30.0005 10.2482C21.3177 10.2482 13.7275 17.4359 13.7275 26.5212C13.7275 30.7188 15.2801 35.0314 18.5002 38.2515ZM30.0005 14.6758C36.5556 14.6758 41.8458 20.311 41.8458 26.5212C41.8458 29.5687 40.6382 32.6738 38.3382 35.0314L30.0005 43.4266L21.6627 35.0314C19.3627 32.6738 18.1552 29.5687 18.1552 26.5212C18.1552 20.311 23.4453 14.6758 30.0005 14.6758ZM25.5728 26.4062C25.5728 28.8787 27.5279 30.8338 30.0005 30.8338C32.473 30.8338 34.4856 28.8787 34.4856 26.4062C34.4856 23.9336 32.473 21.921 30.0005 21.921C27.5279 21.921 25.5728 23.9336 25.5728 26.4062Z" fill="white"/>
</svg>
