<svg xmlns="http://www.w3.org/2000/svg" viewBox="0 0 120.0001 120"><defs><style>.a{fill:#00b400;}.b{fill:#00b4ff;}.c{fill:#008cd7;}.d{fill:#78dceb;}.e{fill:#ffd400;}.f{fill:#b9eb55;}.g{fill:#fff;}</style></defs><circle class="a" cx="60" cy="60" r="60"/><path class="b" d="M32.8027,109.421A54.151,54.151,0,0,1,7.3334,86.9617,53.5243,53.5243,0,0,1,27.3406,13.3024a55.5781,55.5781,0,0,1,5.5-2.7409A53.6516,53.6516,0,0,0,11.0042,60.05a53.3278,53.3278,0,0,0,4.2134,27.5579A54.1164,54.1164,0,0,0,32.8027,109.421Z"/><path class="a" d="M119.651,59.95a53.5752,53.5752,0,0,0-10.364-25.9257A54.61,54.61,0,0,0,87.1993,16.6494a55.326,55.326,0,0,0-54.3585-6.0877,54.6391,54.6391,0,0,1,5.1549-3.3291C64.14-7.6571,97.5723,1.18,112.666,26.971A53.062,53.062,0,0,1,119.651,59.95Z"/><path class="c" d="M87.2067,16.65A55.3311,55.3311,0,0,0,38,19.372,54.3644,54.3644,0,0,0,19.595,36.5409a53.4661,53.4661,0,0,0-8.5838,23.51,53.6518,53.6518,0,0,1,21.837-49.4887A55.3257,55.3257,0,0,1,87.2067,16.65Z"/><path class="d" d="M87.1609,103.369a55.3451,55.3451,0,0,1-54.3563,6.052A54.1162,54.1162,0,0,1,15.22,87.6082,53.3269,53.3269,0,0,1,11.0061,60.05a53.2391,53.2391,0,0,0,6.9846,20.8415C32.0456,104.906,61.9966,114.221,87.1609,103.369Z"/><path class="e" d="M92.66,112.766a55.2906,55.2906,0,0,1-59.8568-3.345,55.3451,55.3451,0,0,0,54.3563-6.052,55.5461,55.5461,0,0,0,5.5-2.741A54.27,54.27,0,0,0,111.075,83.466,53.3717,53.3717,0,0,0,119.651,59.95,53.7167,53.7167,0,0,1,92.66,112.766Z"/><path class="f" d="M119.653,59.95a53.3709,53.3709,0,0,1-8.576,23.5155A54.2734,54.2734,0,0,1,92.6616,100.628a55.5352,55.5352,0,0,1-5.5005,2.741,53.5762,53.5762,0,0,0,.0407-86.72A54.618,54.618,0,0,1,109.29,34.0245,53.5739,53.5739,0,0,1,119.653,59.95Z"/><path d="M102.016,33.039a53.46,53.46,0,0,1-14.8519,70.33c-25.1628,10.852-55.1151,1.537-69.17-22.4769a53.2435,53.2435,0,0,1-6.9853-20.8439,53.47,53.47,0,0,1,8.5867-23.5091A54.3674,54.3674,0,0,1,38.0022,19.3714,55.3366,55.3366,0,0,1,87.21,16.6494,53.9894,53.9894,0,0,1,102.016,33.039Z"/><path class="g" d="M40.0592,81.2832A1.5989,1.5989,0,0,0,38.43,79.7149l-.0129,0H36.2789v3.0658h2.0667A1.61,1.61,0,0,0,40.0592,81.2832Zm-3.7821-4.7057h1.2115a1.361,1.361,0,1,0,0-2.7078H36.2754Zm8.2753,4.92a4.7038,4.7038,0,0,1-5.0587,4.704H30V82.774h1.64V73.8629H30V70.3773h8.38c3.232,0,4.8172,2.0667,4.8172,4.2841a4.2163,4.2163,0,0,1-1.2133,2.922,4.1039,4.1039,0,0,1,2.5705,3.9141ZM77.75,33.3071v5.17h3.3589V36.755h1.9056v8.8888H81.3812V49.09h7.9875V45.6438H87.6448v-8.889H89.55v1.7224H93v-5.17ZM51.9642,59.1218h2.1267c1.424,0,2.5911-.5141,2.5911-1.933,0-1.5081-1.1722-1.9262-2.5963-1.9262H51.9642ZM53.32,67.6765H45.4728v-3.501h1.8559V55.2643H45.4728V51.9124h9.6514c4.2226,0,6.3509,2.3032,6.3509,5.2318a5.4149,5.4149,0,0,1-2.855,4.6784c.2845,1.7136,1.772,2.3529,3.6142,2.3529h2.9475V55.2643H62.68V51.9124h9.4887v3.3519H69.6751v8.9112h2.4968V67.668H62.0372c-4.5944,0-6.7725-1.7823-7.84-5.1411H51.9693v1.64h1.3555v3.4942ZM69.2056,41.0254h2.8138l-1.4566-3.8181Zm-15.927,8.0731H45.4728V45.6437h1.9056V36.7548H45.4728V33.3069H53.46v3.4479H51.9179v2.7214h1.6349c2.0872,0,3.3588-.9991,3.3588-2.7214H55.5492V33.3069h7.54v3.4479H61.177a6.3339,6.3339,0,0,1-3.268,5.2611c.4524,2.4488,1.8577,3.6278,4.9423,3.4479l3.45-8.709H65.12V33.3069h8.8957l4.7213,12.3385H80.37v3.4463H72.381v-3.448h1.2664l-.3633-1.179h-5.261l-.3633,1.179h1.4515V49.09H65.9751c-5.4461,0-6.1589,0-8.1571-.8158a7.9543,7.9543,0,0,1-4.0854-5.3518H51.9178v2.7214h1.3608ZM44.1721,67.69h-14.17v-3.441h1.724V55.36h-1.724V51.9124H44.1721v5.2627H40.623V55.36H36.2652v2.63h4.0853V61.437H36.2652v2.8173h4.3579V62.44h3.5388Zm40.5491-15.776h8.13v3.35H91.1373V67.6628H86.0716L79.8578,58.69v5.4838h1.8439v3.4924H73.5035V64.1738h1.8576V55.2626H73.5035v-3.35h6.7827l6.3561,9.0465V55.2643H84.7212ZM44.1636,49.0985H30.0016V45.6437h1.724V36.7548h-1.724V33.3069H44.1721V38.57H40.623V36.7548H36.2652v2.63h4.0853v3.4463H36.2652v2.8121h4.3579v-1.813h3.549ZM85.1651,77.0407v3.352h3.621v1.3212a4.2983,4.2983,0,0,1-3.0676,1.0539c-2.2826-.07-3.7821-1.9776-3.7821-4.5481,0-2.8036,1.4173-4.4847,3.7821-4.4847a4.1033,4.1033,0,0,1,2.2364.5569l.0171,1.65h3.9946V72.2441a9.4426,9.4426,0,0,0-6.536-2.1507c-5.4238,0-8.0543,3.9672-8.0543,8.1966a8.2618,8.2618,0,0,0,.7866,3.7085c-1.1876,1.14-3.6467.6734-4.4556-1.6983A5.4158,5.4158,0,0,0,76.588,75.608c0-2.9286-2.1284-5.23-6.3492-5.23H53.402V73.87h2.0752v6.1315a2.5186,2.5186,0,0,1-2.4968,2.78,2.6659,2.6659,0,0,1-2.6391-2.78V73.87h1.7136V70.3779H44.071V73.87h1.4977v5.9259c0,4.704,3.6313,6.8427,7.1975,6.8427,4.0666,0,7.206-2.4248,7.206-6.8427V73.879h2.81V82.79H60.8291v3.4273h7.8487V82.79H67.2691V81.0765h2.0393a7.8359,7.8359,0,0,0,11.5588,4.135,8.1559,8.1559,0,0,0,4.7777,1.2818c3.6382,0,6.0631-1.5543,7.1341-3.5507V77.0407Zm-15.8242.68H67.2691V73.87h2.0684c1.4241,0,2.5962.4181,2.5962,1.9244C71.9337,77.2172,70.765,77.721,69.3409,77.721Z"/></svg>